<?xml version="1.0" encoding="UTF-8" standalone="no"?><svg xmlns="http://www.w3.org/2000/svg" xmlns:xlink="http://www.w3.org/1999/xlink" contentStyleType="text/css" height="647px" preserveAspectRatio="none" style="width:1045px;height:647px;background:#FFFFFF;" version="1.1" viewBox="0 0 1045 647" width="1045px" zoomAndPan="magnify"><defs/><g><!--MD5=[e59cf999063292dce8d6ea34dd10a338]
class user--><g id="elem_user"><rect codeLine="1" fill="#F1F1F1" height="206.4844" id="user" rx="2.5" ry="2.5" style="stroke:#181818;stroke-width:0.5;" width="190" x="7" y="238"/><ellipse cx="83.75" cy="254" fill="#ADD1B2" rx="11" ry="11" style="stroke:#181818;stroke-width:1.0;"/><path d="M82.6094,254.7969 L82.6094,257.2969 L86.9375,257.2969 L86.9375,256.375 Q86.9375,255.7656 87.1719,255.5 Q87.4219,255.2344 87.7969,255.2344 Q88.1719,255.2344 88.4063,255.5 Q88.6406,255.7656 88.6406,256.375 L88.6406,259 L80.6406,259 Q80.0156,259 79.75,258.7656 Q79.5,258.5313 79.5,258.1406 Q79.5,257.7656 79.7656,257.5313 Q80.0313,257.2969 80.6406,257.2969 L80.9063,257.2969 L80.9063,250.6406 L80.6406,250.6406 Q80.0156,250.6406 79.75,250.4063 Q79.5,250.1719 79.5,249.7813 Q79.5,249.4063 79.75,249.1719 Q80.0156,248.9375 80.6406,248.9375 L88.2656,248.9375 L88.2656,251.5313 Q88.2656,252.1406 88.0313,252.4063 Q87.8125,252.6563 87.4219,252.6563 Q87.0469,252.6563 86.8125,252.4063 Q86.5781,252.1406 86.5781,251.5313 L86.5781,250.6406 L82.6094,250.6406 L82.6094,253.0938 L84.0938,253.0938 Q84.0938,252.4375 84.2188,252.25 Q84.4844,251.8438 84.9531,251.8438 Q85.3281,251.8438 85.5625,252.1094 Q85.7969,252.3594 85.7969,252.9688 L85.7969,254.9375 Q85.7969,255.4844 85.6719,255.6719 Q85.4063,256.0625 84.9531,256.0625 Q84.4844,256.0625 84.2188,255.6563 Q84.0938,255.4688 84.0938,254.7969 L82.6094,254.7969 Z " fill="#000000"/><text fill="#000000" font-family="sans-serif" font-size="14" lengthAdjust="spacing" textLength="28" x="104.25" y="259.7285">user</text><line style="stroke:#181818;stroke-width:0.5;" x1="8" x2="196" y1="270" y2="270"/><text fill="#000000" font-family="sans-serif" font-size="14" font-weight="bold" lengthAdjust="spacing" textLength="111" x="17" y="288.5332">id: integer «PK»</text><line style="stroke:#181818;stroke-width:1.0;" x1="8" x2="196" y1="295.6094" y2="295.6094"/><text fill="#000000" font-family="sans-serif" font-size="14" lengthAdjust="spacing" textLength="125" x="13" y="314.1426">name: varchar(191)</text><text fill="#000000" font-family="sans-serif" font-size="14" lengthAdjust="spacing" textLength="123" x="13" y="331.752">email: varchar(191)</text><text fill="#000000" font-family="sans-serif" font-size="14" lengthAdjust="spacing" textLength="150" x="13" y="349.3613">password: varchar(191)</text><text fill="#000000" font-family="sans-serif" font-size="14" lengthAdjust="spacing" textLength="178" x="13" y="366.9707">phone_number: varchar(20)</text><text fill="#000000" font-family="sans-serif" font-size="14" lengthAdjust="spacing" textLength="141" x="13" y="384.5801">address: varchar(191)</text><text fill="#000000" font-family="sans-serif" font-size="14" lengthAdjust="spacing" textLength="115" x="13" y="402.1895">is_admin: boolean</text><text fill="#000000" font-family="sans-serif" font-size="14" lengthAdjust="spacing" textLength="130" x="13" y="419.7988">created_at: datetime</text><text fill="#000000" font-family="sans-serif" font-size="14" lengthAdjust="spacing" textLength="134" x="13" y="437.4082">updated_at: datetime</text></g><!--MD5=[aa6efeff38892e418e1589090dab265e]
class category--><g id="elem_category"><rect codeLine="14" fill="#F1F1F1" height="136.0469" id="category" rx="2.5" ry="2.5" style="stroke:#181818;stroke-width:0.5;" width="146" x="860" y="504"/><ellipse cx="901.55" cy="520" fill="#ADD1B2" rx="11" ry="11" style="stroke:#181818;stroke-width:1.0;"/><path d="M900.4094,520.7969 L900.4094,523.2969 L904.7375,523.2969 L904.7375,522.375 Q904.7375,521.7656 904.9719,521.5 Q905.2219,521.2344 905.5969,521.2344 Q905.9719,521.2344 906.2063,521.5 Q906.4406,521.7656 906.4406,522.375 L906.4406,525 L898.4406,525 Q897.8156,525 897.55,524.7656 Q897.3,524.5313 897.3,524.1406 Q897.3,523.7656 897.5656,523.5313 Q897.8313,523.2969 898.4406,523.2969 L898.7063,523.2969 L898.7063,516.6406 L898.4406,516.6406 Q897.8156,516.6406 897.55,516.4063 Q897.3,516.1719 897.3,515.7813 Q897.3,515.4063 897.55,515.1719 Q897.8156,514.9375 898.4406,514.9375 L906.0656,514.9375 L906.0656,517.5313 Q906.0656,518.1406 905.8313,518.4063 Q905.6125,518.6563 905.2219,518.6563 Q904.8469,518.6563 904.6125,518.4063 Q904.3781,518.1406 904.3781,517.5313 L904.3781,516.6406 L900.4094,516.6406 L900.4094,519.0938 L901.8938,519.0938 Q901.8938,518.4375 902.0188,518.25 Q902.2844,517.8438 902.7531,517.8438 Q903.1281,517.8438 903.3625,518.1094 Q903.5969,518.3594 903.5969,518.9688 L903.5969,520.9375 Q903.5969,521.4844 903.4719,521.6719 Q903.2063,522.0625 902.7531,522.0625 Q902.2844,522.0625 902.0188,521.6563 Q901.8938,521.4688 901.8938,520.7969 L900.4094,520.7969 Z " fill="#000000"/><text fill="#000000" font-family="sans-serif" font-size="14" lengthAdjust="spacing" textLength="55" x="921.45" y="525.7285">category</text><line style="stroke:#181818;stroke-width:0.5;" x1="861" x2="1005" y1="536" y2="536"/><text fill="#000000" font-family="sans-serif" font-size="14" font-weight="bold" lengthAdjust="spacing" textLength="111" x="870" y="554.5332">id: integer «PK»</text><line style="stroke:#181818;stroke-width:1.0;" x1="861" x2="1005" y1="561.6094" y2="561.6094"/><text fill="#000000" font-family="sans-serif" font-size="14" lengthAdjust="spacing" textLength="125" x="866" y="580.1426">name: varchar(191)</text><text fill="#000000" font-family="sans-serif" font-size="14" lengthAdjust="spacing" textLength="116" x="866" y="597.752">slug: varchar(255)</text><text fill="#000000" font-family="sans-serif" font-size="14" lengthAdjust="spacing" textLength="130" x="866" y="615.3613">created_at: datetime</text><text fill="#000000" font-family="sans-serif" font-size="14" lengthAdjust="spacing" textLength="134" x="866" y="632.9707">updated_at: datetime</text></g><!--MD5=[e7a7e1f076ef42143f937b81d7de9aa7]
class product--><g id="elem_product"><rect codeLine="23" fill="#F1F1F1" height="188.875" id="product" rx="2.5" ry="2.5" style="stroke:#181818;stroke-width:0.5;" width="211" x="827.5" y="246.5"/><ellipse cx="904.75" cy="262.5" fill="#ADD1B2" rx="11" ry="11" style="stroke:#181818;stroke-width:1.0;"/><path d="M903.6094,263.2969 L903.6094,265.7969 L907.9375,265.7969 L907.9375,264.875 Q907.9375,264.2656 908.1719,264 Q908.4219,263.7344 908.7969,263.7344 Q909.1719,263.7344 909.4063,264 Q909.6406,264.2656 909.6406,264.875 L909.6406,267.5 L901.6406,267.5 Q901.0156,267.5 900.75,267.2656 Q900.5,267.0313 900.5,266.6406 Q900.5,266.2656 900.7656,266.0313 Q901.0313,265.7969 901.6406,265.7969 L901.9063,265.7969 L901.9063,259.1406 L901.6406,259.1406 Q901.0156,259.1406 900.75,258.9063 Q900.5,258.6719 900.5,258.2813 Q900.5,257.9063 900.75,257.6719 Q901.0156,257.4375 901.6406,257.4375 L909.2656,257.4375 L909.2656,260.0313 Q909.2656,260.6406 909.0313,260.9063 Q908.8125,261.1563 908.4219,261.1563 Q908.0469,261.1563 907.8125,260.9063 Q907.5781,260.6406 907.5781,260.0313 L907.5781,259.1406 L903.6094,259.1406 L903.6094,261.5938 L905.0938,261.5938 Q905.0938,260.9375 905.2188,260.75 Q905.4844,260.3438 905.9531,260.3438 Q906.3281,260.3438 906.5625,260.6094 Q906.7969,260.8594 906.7969,261.4688 L906.7969,263.4375 Q906.7969,263.9844 906.6719,264.1719 Q906.4063,264.5625 905.9531,264.5625 Q905.4844,264.5625 905.2188,264.1563 Q905.0938,263.9688 905.0938,263.2969 L903.6094,263.2969 Z " fill="#000000"/><text fill="#000000" font-family="sans-serif" font-size="14" lengthAdjust="spacing" textLength="48" x="925.25" y="268.2285">product</text><line style="stroke:#181818;stroke-width:0.5;" x1="828.5" x2="1037.5" y1="278.5" y2="278.5"/><text fill="#000000" font-family="sans-serif" font-size="14" font-weight="bold" lengthAdjust="spacing" textLength="111" x="837.5" y="297.0332">id: integer «PK»</text><line style="stroke:#181818;stroke-width:1.0;" x1="828.5" x2="1037.5" y1="304.1094" y2="304.1094"/><text fill="#000000" font-family="sans-serif" font-size="14" lengthAdjust="spacing" textLength="116" x="833.5" y="322.6426">category_id: «FK»</text><text fill="#000000" font-family="sans-serif" font-size="14" lengthAdjust="spacing" textLength="125" x="833.5" y="340.252">name: varchar(191)</text><text fill="#000000" font-family="sans-serif" font-size="14" lengthAdjust="spacing" textLength="116" x="833.5" y="357.8613">slug: varchar(255)</text><text fill="#000000" font-family="sans-serif" font-size="14" lengthAdjust="spacing" textLength="199" x="833.5" y="375.4707">short_description: varchar(191)</text><text fill="#000000" font-family="sans-serif" font-size="14" lengthAdjust="spacing" textLength="168" x="833.5" y="393.0801">product_img: varchar(191)</text><text fill="#000000" font-family="sans-serif" font-size="14" lengthAdjust="spacing" textLength="130" x="833.5" y="410.6895">created_at: datetime</text><text fill="#000000" font-family="sans-serif" font-size="14" lengthAdjust="spacing" textLength="134" x="833.5" y="428.2988">updated_at: datetime</text></g><!--MD5=[44be5dd73f854f3597bb7eede8e38bb3]
class product_attr--><g id="elem_product_attr"><rect codeLine="35" fill="#F1F1F1" height="171.2656" id="product_attr" rx="2.5" ry="2.5" style="stroke:#181818;stroke-width:0.5;" width="174" x="615" y="7"/><ellipse cx="659.25" cy="23" fill="#ADD1B2" rx="11" ry="11" style="stroke:#181818;stroke-width:1.0;"/><path d="M658.1094,23.7969 L658.1094,26.2969 L662.4375,26.2969 L662.4375,25.375 Q662.4375,24.7656 662.6719,24.5 Q662.9219,24.2344 663.2969,24.2344 Q663.6719,24.2344 663.9063,24.5 Q664.1406,24.7656 664.1406,25.375 L664.1406,28 L656.1406,28 Q655.5156,28 655.25,27.7656 Q655,27.5313 655,27.1406 Q655,26.7656 655.2656,26.5313 Q655.5313,26.2969 656.1406,26.2969 L656.4063,26.2969 L656.4063,19.6406 L656.1406,19.6406 Q655.5156,19.6406 655.25,19.4063 Q655,19.1719 655,18.7813 Q655,18.4063 655.25,18.1719 Q655.5156,17.9375 656.1406,17.9375 L663.7656,17.9375 L663.7656,20.5313 Q663.7656,21.1406 663.5313,21.4063 Q663.3125,21.6563 662.9219,21.6563 Q662.5469,21.6563 662.3125,21.4063 Q662.0781,21.1406 662.0781,20.5313 L662.0781,19.6406 L658.1094,19.6406 L658.1094,22.0938 L659.5938,22.0938 Q659.5938,21.4375 659.7188,21.25 Q659.9844,20.8438 660.4531,20.8438 Q660.8281,20.8438 661.0625,21.1094 Q661.2969,21.3594 661.2969,21.9688 L661.2969,23.9375 Q661.2969,24.4844 661.1719,24.6719 Q660.9063,25.0625 660.4531,25.0625 Q659.9844,25.0625 659.7188,24.6563 Q659.5938,24.4688 659.5938,23.7969 L658.1094,23.7969 Z " fill="#000000"/><text fill="#000000" font-family="sans-serif" font-size="14" lengthAdjust="spacing" textLength="77" x="679.75" y="28.7285">product_attr</text><line style="stroke:#181818;stroke-width:0.5;" x1="616" x2="788" y1="39" y2="39"/><text fill="#000000" font-family="sans-serif" font-size="14" font-weight="bold" lengthAdjust="spacing" textLength="111" x="625" y="57.5332">id: integer «PK»</text><line style="stroke:#181818;stroke-width:1.0;" x1="616" x2="788" y1="64.6094" y2="64.6094"/><text fill="#000000" font-family="sans-serif" font-size="14" lengthAdjust="spacing" textLength="157" x="621" y="83.1426">product_id: integer «FK»</text><text fill="#000000" font-family="sans-serif" font-size="14" lengthAdjust="spacing" textLength="124" x="621" y="100.752">value: varchar(191)</text><text fill="#000000" font-family="sans-serif" font-size="14" lengthAdjust="spacing" textLength="87" x="621" y="118.3613">price: decimal</text><text fill="#000000" font-family="sans-serif" font-size="14" lengthAdjust="spacing" textLength="162" x="621" y="135.9707">quantity_in_stock: integer</text><text fill="#000000" font-family="sans-serif" font-size="14" lengthAdjust="spacing" textLength="130" x="621" y="153.5801">created_at: datetime</text><text fill="#000000" font-family="sans-serif" font-size="14" lengthAdjust="spacing" textLength="134" x="621" y="171.1895">updated_at: datetime</text></g><!--MD5=[5121d032c2d8b5f50cb6b765731b9be3]
class product_image--><g id="elem_product_image"><rect codeLine="46" fill="#F1F1F1" height="136.0469" id="product_image" rx="2.5" ry="2.5" style="stroke:#181818;stroke-width:0.5;" width="198" x="834" y="24.5"/><ellipse cx="881.75" cy="40.5" fill="#ADD1B2" rx="11" ry="11" style="stroke:#181818;stroke-width:1.0;"/><path d="M880.6094,41.2969 L880.6094,43.7969 L884.9375,43.7969 L884.9375,42.875 Q884.9375,42.2656 885.1719,42 Q885.4219,41.7344 885.7969,41.7344 Q886.1719,41.7344 886.4063,42 Q886.6406,42.2656 886.6406,42.875 L886.6406,45.5 L878.6406,45.5 Q878.0156,45.5 877.75,45.2656 Q877.5,45.0313 877.5,44.6406 Q877.5,44.2656 877.7656,44.0313 Q878.0313,43.7969 878.6406,43.7969 L878.9063,43.7969 L878.9063,37.1406 L878.6406,37.1406 Q878.0156,37.1406 877.75,36.9063 Q877.5,36.6719 877.5,36.2813 Q877.5,35.9063 877.75,35.6719 Q878.0156,35.4375 878.6406,35.4375 L886.2656,35.4375 L886.2656,38.0313 Q886.2656,38.6406 886.0313,38.9063 Q885.8125,39.1563 885.4219,39.1563 Q885.0469,39.1563 884.8125,38.9063 Q884.5781,38.6406 884.5781,38.0313 L884.5781,37.1406 L880.6094,37.1406 L880.6094,39.5938 L882.0938,39.5938 Q882.0938,38.9375 882.2188,38.75 Q882.4844,38.3438 882.9531,38.3438 Q883.3281,38.3438 883.5625,38.6094 Q883.7969,38.8594 883.7969,39.4688 L883.7969,41.4375 Q883.7969,41.9844 883.6719,42.1719 Q883.4063,42.5625 882.9531,42.5625 Q882.4844,42.5625 882.2188,42.1563 Q882.0938,41.9688 882.0938,41.2969 L880.6094,41.2969 Z " fill="#000000"/><text fill="#000000" font-family="sans-serif" font-size="14" lengthAdjust="spacing" textLength="94" x="902.25" y="46.2285">product_image</text><line style="stroke:#181818;stroke-width:0.5;" x1="835" x2="1031" y1="56.5" y2="56.5"/><text fill="#000000" font-family="sans-serif" font-size="14" font-weight="bold" lengthAdjust="spacing" textLength="111" x="844" y="75.0332">id: integer «PK»</text><line style="stroke:#181818;stroke-width:1.0;" x1="835" x2="1031" y1="82.1094" y2="82.1094"/><text fill="#000000" font-family="sans-serif" font-size="14" lengthAdjust="spacing" textLength="186" x="840" y="100.6426">product_attr_id: integer «FK»</text><text fill="#000000" font-family="sans-serif" font-size="14" lengthAdjust="spacing" textLength="106" x="840" y="118.252">url: varchar(255)</text><text fill="#000000" font-family="sans-serif" font-size="14" lengthAdjust="spacing" textLength="130" x="840" y="135.8613">created_at: datetime</text><text fill="#000000" font-family="sans-serif" font-size="14" lengthAdjust="spacing" textLength="134" x="840" y="153.4707">updated_at: datetime</text></g><!--MD5=[7f301e5a6f324784b35ebbf4505361c2]
class shipping_method--><g id="elem_shipping_method"><rect codeLine="55" fill="#F1F1F1" height="136.0469" id="shipping_method" rx="2.5" ry="2.5" style="stroke:#181818;stroke-width:0.5;" width="146" x="232" y="273"/><ellipse cx="249.7" cy="289" fill="#ADD1B2" rx="11" ry="11" style="stroke:#181818;stroke-width:1.0;"/><path d="M248.5594,289.7969 L248.5594,292.2969 L252.8875,292.2969 L252.8875,291.375 Q252.8875,290.7656 253.1219,290.5 Q253.3719,290.2344 253.7469,290.2344 Q254.1219,290.2344 254.3563,290.5 Q254.5906,290.7656 254.5906,291.375 L254.5906,294 L246.5906,294 Q245.9656,294 245.7,293.7656 Q245.45,293.5313 245.45,293.1406 Q245.45,292.7656 245.7156,292.5313 Q245.9813,292.2969 246.5906,292.2969 L246.8563,292.2969 L246.8563,285.6406 L246.5906,285.6406 Q245.9656,285.6406 245.7,285.4063 Q245.45,285.1719 245.45,284.7813 Q245.45,284.4063 245.7,284.1719 Q245.9656,283.9375 246.5906,283.9375 L254.2156,283.9375 L254.2156,286.5313 Q254.2156,287.1406 253.9813,287.4063 Q253.7625,287.6563 253.3719,287.6563 Q252.9969,287.6563 252.7625,287.4063 Q252.5281,287.1406 252.5281,286.5313 L252.5281,285.6406 L248.5594,285.6406 L248.5594,288.0938 L250.0438,288.0938 Q250.0438,287.4375 250.1688,287.25 Q250.4344,286.8438 250.9031,286.8438 Q251.2781,286.8438 251.5125,287.1094 Q251.7469,287.3594 251.7469,287.9688 L251.7469,289.9375 Q251.7469,290.4844 251.6219,290.6719 Q251.3563,291.0625 250.9031,291.0625 Q250.4344,291.0625 250.1688,290.6563 Q250.0438,290.4688 250.0438,289.7969 L248.5594,289.7969 Z " fill="#000000"/><text fill="#000000" font-family="sans-serif" font-size="14" lengthAdjust="spacing" textLength="108" x="264.3" y="294.7285">shipping_method</text><line style="stroke:#181818;stroke-width:0.5;" x1="233" x2="377" y1="305" y2="305"/><text fill="#000000" font-family="sans-serif" font-size="14" font-weight="bold" lengthAdjust="spacing" textLength="111" x="242" y="323.5332">id: integer «PK»</text><line style="stroke:#181818;stroke-width:1.0;" x1="233" x2="377" y1="330.6094" y2="330.6094"/><text fill="#000000" font-family="sans-serif" font-size="14" lengthAdjust="spacing" textLength="125" x="238" y="349.1426">name: varchar(191)</text><text fill="#000000" font-family="sans-serif" font-size="14" lengthAdjust="spacing" textLength="87" x="238" y="366.752">price: decimal</text><text fill="#000000" font-family="sans-serif" font-size="14" lengthAdjust="spacing" textLength="130" x="238" y="384.3613">created_at: datetime</text><text fill="#000000" font-family="sans-serif" font-size="14" lengthAdjust="spacing" textLength="134" x="238" y="401.9707">updated_at: datetime</text></g><!--MD5=[1e66e420fa66e3023a7e864e49eec7a4]
class order_status--><g id="elem_order_status"><rect codeLine="64" fill="#F1F1F1" height="118.4375" id="order_status" rx="2.5" ry="2.5" style="stroke:#181818;stroke-width:0.5;" width="146" x="413" y="282"/><ellipse cx="443.3" cy="298" fill="#ADD1B2" rx="11" ry="11" style="stroke:#181818;stroke-width:1.0;"/><path d="M442.1594,298.7969 L442.1594,301.2969 L446.4875,301.2969 L446.4875,300.375 Q446.4875,299.7656 446.7219,299.5 Q446.9719,299.2344 447.3469,299.2344 Q447.7219,299.2344 447.9563,299.5 Q448.1906,299.7656 448.1906,300.375 L448.1906,303 L440.1906,303 Q439.5656,303 439.3,302.7656 Q439.05,302.5313 439.05,302.1406 Q439.05,301.7656 439.3156,301.5313 Q439.5813,301.2969 440.1906,301.2969 L440.4563,301.2969 L440.4563,294.6406 L440.1906,294.6406 Q439.5656,294.6406 439.3,294.4063 Q439.05,294.1719 439.05,293.7813 Q439.05,293.4063 439.3,293.1719 Q439.5656,292.9375 440.1906,292.9375 L447.8156,292.9375 L447.8156,295.5313 Q447.8156,296.1406 447.5813,296.4063 Q447.3625,296.6563 446.9719,296.6563 Q446.5969,296.6563 446.3625,296.4063 Q446.1281,296.1406 446.1281,295.5313 L446.1281,294.6406 L442.1594,294.6406 L442.1594,297.0938 L443.6438,297.0938 Q443.6438,296.4375 443.7688,296.25 Q444.0344,295.8438 444.5031,295.8438 Q444.8781,295.8438 445.1125,296.1094 Q445.3469,296.3594 445.3469,296.9688 L445.3469,298.9375 Q445.3469,299.4844 445.2219,299.6719 Q444.9563,300.0625 444.5031,300.0625 Q444.0344,300.0625 443.7688,299.6563 Q443.6438,299.4688 443.6438,298.7969 L442.1594,298.7969 Z " fill="#000000"/><text fill="#000000" font-family="sans-serif" font-size="14" lengthAdjust="spacing" textLength="80" x="460.7" y="303.7285">order_status</text><line style="stroke:#181818;stroke-width:0.5;" x1="414" x2="558" y1="314" y2="314"/><text fill="#000000" font-family="sans-serif" font-size="14" font-weight="bold" lengthAdjust="spacing" textLength="111" x="423" y="332.5332">id: integer «PK»</text><line style="stroke:#181818;stroke-width:1.0;" x1="414" x2="558" y1="339.6094" y2="339.6094"/><text fill="#000000" font-family="sans-serif" font-size="14" lengthAdjust="spacing" textLength="120" x="419" y="358.1426">status: varchar(11)</text><text fill="#000000" font-family="sans-serif" font-size="14" lengthAdjust="spacing" textLength="130" x="419" y="375.752">created_at: datetime</text><text fill="#000000" font-family="sans-serif" font-size="14" lengthAdjust="spacing" textLength="134" x="419" y="393.3613">updated_at: datetime</text></g><!--MD5=[a5d022e75c0065b9d5401ddae886f23d]
class order--><g id="elem_order"><rect codeLine="72" fill="#F1F1F1" height="153.6563" id="order" rx="2.5" ry="2.5" style="stroke:#181818;stroke-width:0.5;" width="229" x="275.5" y="15.5"/><ellipse cx="368.75" cy="31.5" fill="#ADD1B2" rx="11" ry="11" style="stroke:#181818;stroke-width:1.0;"/><path d="M367.6094,32.2969 L367.6094,34.7969 L371.9375,34.7969 L371.9375,33.875 Q371.9375,33.2656 372.1719,33 Q372.4219,32.7344 372.7969,32.7344 Q373.1719,32.7344 373.4063,33 Q373.6406,33.2656 373.6406,33.875 L373.6406,36.5 L365.6406,36.5 Q365.0156,36.5 364.75,36.2656 Q364.5,36.0313 364.5,35.6406 Q364.5,35.2656 364.7656,35.0313 Q365.0313,34.7969 365.6406,34.7969 L365.9063,34.7969 L365.9063,28.1406 L365.6406,28.1406 Q365.0156,28.1406 364.75,27.9063 Q364.5,27.6719 364.5,27.2813 Q364.5,26.9063 364.75,26.6719 Q365.0156,26.4375 365.6406,26.4375 L373.2656,26.4375 L373.2656,29.0313 Q373.2656,29.6406 373.0313,29.9063 Q372.8125,30.1563 372.4219,30.1563 Q372.0469,30.1563 371.8125,29.9063 Q371.5781,29.6406 371.5781,29.0313 L371.5781,28.1406 L367.6094,28.1406 L367.6094,30.5938 L369.0938,30.5938 Q369.0938,29.9375 369.2188,29.75 Q369.4844,29.3438 369.9531,29.3438 Q370.3281,29.3438 370.5625,29.6094 Q370.7969,29.8594 370.7969,30.4688 L370.7969,32.4375 Q370.7969,32.9844 370.6719,33.1719 Q370.4063,33.5625 369.9531,33.5625 Q369.4844,33.5625 369.2188,33.1563 Q369.0938,32.9688 369.0938,32.2969 L367.6094,32.2969 Z " fill="#000000"/><text fill="#000000" font-family="sans-serif" font-size="14" lengthAdjust="spacing" textLength="34" x="389.25" y="37.2285">order</text><line style="stroke:#181818;stroke-width:0.5;" x1="276.5" x2="503.5" y1="47.5" y2="47.5"/><text fill="#000000" font-family="sans-serif" font-size="14" font-weight="bold" lengthAdjust="spacing" textLength="111" x="285.5" y="66.0332">id: integer «PK»</text><line style="stroke:#181818;stroke-width:1.0;" x1="276.5" x2="503.5" y1="73.1094" y2="73.1094"/><text fill="#000000" font-family="sans-serif" font-size="14" lengthAdjust="spacing" textLength="137" x="281.5" y="91.6426">user_id: integer «FK»</text><text fill="#000000" font-family="sans-serif" font-size="14" lengthAdjust="spacing" textLength="217" x="281.5" y="109.252">shipping_method_id: integer «FK»</text><text fill="#000000" font-family="sans-serif" font-size="14" lengthAdjust="spacing" textLength="189" x="281.5" y="126.8613">order_status_id: integer «FK»</text><text fill="#000000" font-family="sans-serif" font-size="14" lengthAdjust="spacing" textLength="130" x="281.5" y="144.4707">created_at: datetime</text><text fill="#000000" font-family="sans-serif" font-size="14" lengthAdjust="spacing" textLength="134" x="281.5" y="162.0801">updated_at: datetime</text></g><!--MD5=[202aabeb0f0e7d57ddb7f1d70aeeaa8a]
class order_details--><g id="elem_order_details"><rect codeLine="82" fill="#F1F1F1" height="171.2656" id="order_details" rx="2.5" ry="2.5" style="stroke:#181818;stroke-width:0.5;" width="198" x="594" y="255.5"/><ellipse cx="647.25" cy="271.5" fill="#ADD1B2" rx="11" ry="11" style="stroke:#181818;stroke-width:1.0;"/><path d="M646.1094,272.2969 L646.1094,274.7969 L650.4375,274.7969 L650.4375,273.875 Q650.4375,273.2656 650.6719,273 Q650.9219,272.7344 651.2969,272.7344 Q651.6719,272.7344 651.9063,273 Q652.1406,273.2656 652.1406,273.875 L652.1406,276.5 L644.1406,276.5 Q643.5156,276.5 643.25,276.2656 Q643,276.0313 643,275.6406 Q643,275.2656 643.2656,275.0313 Q643.5313,274.7969 644.1406,274.7969 L644.4063,274.7969 L644.4063,268.1406 L644.1406,268.1406 Q643.5156,268.1406 643.25,267.9063 Q643,267.6719 643,267.2813 Q643,266.9063 643.25,266.6719 Q643.5156,266.4375 644.1406,266.4375 L651.7656,266.4375 L651.7656,269.0313 Q651.7656,269.6406 651.5313,269.9063 Q651.3125,270.1563 650.9219,270.1563 Q650.5469,270.1563 650.3125,269.9063 Q650.0781,269.6406 650.0781,269.0313 L650.0781,268.1406 L646.1094,268.1406 L646.1094,270.5938 L647.5938,270.5938 Q647.5938,269.9375 647.7188,269.75 Q647.9844,269.3438 648.4531,269.3438 Q648.8281,269.3438 649.0625,269.6094 Q649.2969,269.8594 649.2969,270.4688 L649.2969,272.4375 Q649.2969,272.9844 649.1719,273.1719 Q648.9063,273.5625 648.4531,273.5625 Q647.9844,273.5625 647.7188,273.1563 Q647.5938,272.9688 647.5938,272.2969 L646.1094,272.2969 Z " fill="#000000"/><text fill="#000000" font-family="sans-serif" font-size="14" lengthAdjust="spacing" textLength="83" x="667.75" y="277.2285">order_details</text><line style="stroke:#181818;stroke-width:0.5;" x1="595" x2="791" y1="287.5" y2="287.5"/><text fill="#000000" font-family="sans-serif" font-size="14" font-weight="bold" lengthAdjust="spacing" textLength="111" x="604" y="306.0332">id: integer «PK»</text><line style="stroke:#181818;stroke-width:1.0;" x1="595" x2="791" y1="313.1094" y2="313.1094"/><text fill="#000000" font-family="sans-serif" font-size="14" lengthAdjust="spacing" textLength="143" x="600" y="331.6426">order_id: integer «FK»</text><text fill="#000000" font-family="sans-serif" font-size="14" lengthAdjust="spacing" textLength="186" x="600" y="349.252">product_attr_id: integer «FK»</text><text fill="#000000" font-family="sans-serif" font-size="14" lengthAdjust="spacing" textLength="102" x="600" y="366.8613">quantity: integer</text><text fill="#000000" font-family="sans-serif" font-size="14" lengthAdjust="spacing" textLength="87" x="600" y="384.4707">price: decimal</text><text fill="#000000" font-family="sans-serif" font-size="14" lengthAdjust="spacing" textLength="130" x="600" y="402.0801">created_at: datetime</text><text fill="#000000" font-family="sans-serif" font-size="14" lengthAdjust="spacing" textLength="134" x="600" y="419.6895">updated_at: datetime</text></g><!--MD5=[bc6726ab9e359cb749f91bb62e51a7da]
link product to category--><g id="link_product_category"><path codeLine="93" d="M933,443.88 C933,461.38 933,479.27 933,495.91 " fill="none" id="product-category" style="stroke:#181818;stroke-width:1.0;stroke-dasharray:7.0,7.0;"/><line style="stroke:#181818;stroke-width:1.0;" x1="937" x2="929" y1="499.96" y2="499.96"/><line style="stroke:#181818;stroke-width:1.0;" x1="937" x2="929" y1="496.96" y2="496.96"/><line style="stroke:#181818;stroke-width:1.0;" x1="933" x2="933" y1="495.96" y2="503.96"/><line style="stroke:#181818;stroke-width:1.0;" x1="933" x2="927" y1="443.8" y2="435.8"/><line style="stroke:#181818;stroke-width:1.0;" x1="933" x2="939" y1="443.8" y2="435.8"/><line style="stroke:#181818;stroke-width:1.0;" x1="933" x2="933" y1="443.8" y2="435.8"/><line style="stroke:#181818;stroke-width:1.0;" x1="929" x2="937" y1="445.8" y2="445.8"/></g><!--MD5=[5d28c9ca9f68fbd29033789be823643a]
link product_attr to product--><g id="link_product_attr_product"><path codeLine="94" d="M787.06,184.27 C804.04,202.39 821.97,221.52 839.22,239.93 " fill="none" id="product_attr-product" style="stroke:#181818;stroke-width:1.0;stroke-dasharray:7.0,7.0;"/><line style="stroke:#181818;stroke-width:1.0;" x1="845.2356" x2="839.3962" y1="240.4962" y2="245.9644"/><line style="stroke:#181818;stroke-width:1.0;" x1="843.185" x2="837.3456" y1="238.3064" y2="243.7746"/><line style="stroke:#181818;stroke-width:1.0;" x1="839.5818" x2="845.05" y1="240.3106" y2="246.15"/><line style="stroke:#181818;stroke-width:1.0;" x1="786.9682" x2="777.1204" y1="184.1694" y2="182.4312"/><line style="stroke:#181818;stroke-width:1.0;" x1="786.9682" x2="785.8796" y1="184.1694" y2="174.2288"/><line style="stroke:#181818;stroke-width:1.0;" x1="786.9682" x2="781.5" y1="184.1694" y2="178.33"/><line style="stroke:#181818;stroke-width:1.0;" x1="785.4155" x2="791.255" y1="188.3634" y2="182.8952"/></g><!--MD5=[61d60d13bcda8f34661aa2bb75f5cd97]
link product_image to product--><g id="link_product_image_product"><path codeLine="95" d="M933,168.7 C933,190.55 933,214.8 933,238.01 " fill="none" id="product_image-product" style="stroke:#181818;stroke-width:1.0;stroke-dasharray:7.0,7.0;"/><line style="stroke:#181818;stroke-width:1.0;" x1="937" x2="929" y1="242.17" y2="242.17"/><line style="stroke:#181818;stroke-width:1.0;" x1="937" x2="929" y1="239.17" y2="239.17"/><line style="stroke:#181818;stroke-width:1.0;" x1="933" x2="933" y1="238.17" y2="246.17"/><line style="stroke:#181818;stroke-width:1.0;" x1="933" x2="927" y1="168.53" y2="160.53"/><line style="stroke:#181818;stroke-width:1.0;" x1="933" x2="939" y1="168.53" y2="160.53"/><line style="stroke:#181818;stroke-width:1.0;" x1="933" x2="933" y1="168.53" y2="160.53"/><line style="stroke:#181818;stroke-width:1.0;" x1="929" x2="937" y1="170.53" y2="170.53"/></g><!--MD5=[0126c3034958e11a6d7dee9cd99996aa]
link order to user--><g id="link_order_user"><path codeLine="96" d="M288.93,174.99 C264.21,195.33 237.98,217.26 214,238 C210.43,241.09 206.81,244.24 203.17,247.44 " fill="none" id="order-user" style="stroke:#181818;stroke-width:1.0;stroke-dasharray:7.0,7.0;"/><line style="stroke:#181818;stroke-width:1.0;" x1="202.6656" x2="197.3773" y1="253.2173" y2="247.2144"/><line style="stroke:#181818;stroke-width:1.0;" x1="204.9166" x2="199.6284" y1="251.2342" y2="245.2314"/><line style="stroke:#181818;stroke-width:1.0;" x1="203.0229" x2="197.02" y1="247.5718" y2="252.86"/><line style="stroke:#181818;stroke-width:1.0;" x1="288.9992" x2="291.3706" y1="174.9391" y2="165.2244"/><line style="stroke:#181818;stroke-width:1.0;" x1="288.9992" x2="298.9894" y1="174.9391" y2="174.4956"/><line style="stroke:#181818;stroke-width:1.0;" x1="288.9992" x2="295.18" y1="174.9391" y2="169.86"/><ellipse cx="284.3636" cy="178.7485" fill="none" rx="4" ry="4" style="stroke:#181818;stroke-width:1.0;"/></g><!--MD5=[d344720344a4f20c02ccc289a143f15c]
link order to order_details--><g id="link_order_order_details"><path codeLine="97" d="M495.85,174.07 C522.26,194.63 550.36,216.89 576,238 C580.97,242.09 586.02,246.3 591.11,250.58 " fill="none" id="order-order_details" style="stroke:#181818;stroke-width:1.0;stroke-dasharray:7.0,7.0;"/><line style="stroke:#181818;stroke-width:1.0;" x1="596.1662" x2="591.003" y1="249.603" y2="255.7138"/><line style="stroke:#181818;stroke-width:1.0;" x1="593.8746" x2="588.7115" y1="247.6668" y2="253.7777"/><line style="stroke:#181818;stroke-width:1.0;" x1="590.5292" x2="596.64" y1="250.0769" y2="255.24"/><line style="stroke:#181818;stroke-width:1.0;" x1="490.9516" x2="495.8632" y1="175.3232" y2="169.0084"/><line style="stroke:#181818;stroke-width:1.0;" x1="493.3197" x2="498.2312" y1="177.165" y2="170.8502"/><line style="stroke:#181818;stroke-width:1.0;" x1="496.5648" x2="490.25" y1="174.6215" y2="169.71"/></g><!--MD5=[d19f2375a9d097dbb6083902311c26e1]
link order to order_status--><g id="link_order_order_status"><path codeLine="98" d="M422.38,176.64 C434.86,208.7 448.93,244.82 460.66,274.93 " fill="none" id="order-order_status" style="stroke:#181818;stroke-width:1.0;stroke-dasharray:7.0,7.0;"/><line style="stroke:#181818;stroke-width:1.0;" x1="465.5615" x2="458.1036" y1="276.4836" y2="279.3785"/><line style="stroke:#181818;stroke-width:1.0;" x1="464.476" x2="457.0181" y1="273.6869" y2="276.5818"/><line style="stroke:#181818;stroke-width:1.0;" x1="460.3852" x2="463.28" y1="274.2021" y2="281.66"/><line style="stroke:#181818;stroke-width:1.0;" x1="417.4445" x2="424.899" y1="174.989" y2="172.0855"/><line style="stroke:#181818;stroke-width:1.0;" x1="418.5333" x2="425.9878" y1="177.7844" y2="174.8809"/><line style="stroke:#181818;stroke-width:1.0;" x1="422.6235" x2="419.72" y1="177.2645" y2="169.81"/></g><!--MD5=[d10a3fab9f9c4e78b5c8fa7eea69b12b]
link order to shipping_method--><g id="link_order_shipping_method"><path codeLine="99" d="M361.4,176.44 C351.39,205.47 340.22,237.86 330.48,266.1 " fill="none" id="order-shipping_method" style="stroke:#181818;stroke-width:1.0;stroke-dasharray:7.0,7.0;"/><line style="stroke:#181818;stroke-width:1.0;" x1="333.2507" x2="325.6827" y1="270.3227" y2="267.7293"/><line style="stroke:#181818;stroke-width:1.0;" x1="334.2232" x2="326.6552" y1="267.4847" y2="264.8913"/><line style="stroke:#181818;stroke-width:1.0;" x1="330.7633" x2="328.17" y1="265.242" y2="272.81"/><line style="stroke:#181818;stroke-width:1.0;" x1="358.6029" x2="366.1641" y1="172.2841" y2="174.8971"/><line style="stroke:#181818;stroke-width:1.0;" x1="357.623" x2="365.1843" y1="175.1196" y2="177.7326"/><line style="stroke:#181818;stroke-width:1.0;" x1="361.077" x2="363.69" y1="177.3712" y2="169.81"/></g><!--MD5=[62070bbd123cee8b4e3ef0af0ab3dada]
link product_attr to order_details--><g id="link_product_attr_order_details"><path codeLine="100" d="M698.6,186.59 C697.88,206.46 697.11,227.44 696.38,247.29 " fill="none" id="product_attr-order_details" style="stroke:#181818;stroke-width:1.0;stroke-dasharray:7.0,7.0;"/><line style="stroke:#181818;stroke-width:1.0;" x1="700.2371" x2="692.2427" y1="251.5827" y2="251.2829"/><line style="stroke:#181818;stroke-width:1.0;" x1="700.3495" x2="692.3551" y1="248.5848" y2="248.285"/><line style="stroke:#181818;stroke-width:1.0;" x1="696.3898" x2="696.09" y1="247.4356" y2="255.43"/><line style="stroke:#181818;stroke-width:1.0;" x1="698.6002" x2="692.9042" y1="186.3244" y2="178.1052"/><line style="stroke:#181818;stroke-width:1.0;" x1="698.6002" x2="704.8958" y1="186.3244" y2="178.5548"/><line style="stroke:#181818;stroke-width:1.0;" x1="698.6002" x2="698.9" y1="186.3244" y2="178.33"/><line style="stroke:#181818;stroke-width:1.0;" x1="694.5281" x2="702.5225" y1="188.1731" y2="188.4729"/></g><!--MD5=[f11607c102d5e4e61626afd272d868bf]
@startuml entity_relationship
    entity user {
        ** id: integer <<PK>> **
        - -
        name: varchar(191)
        email: varchar(191)
        password: varchar(191)
        phone_number: varchar(20)
        address: varchar(191)
        is_admin: boolean
        created_at: datetime
        updated_at: datetime
    }

    entity category {
        ** id: integer <<PK>> **
        - -
        name: varchar(191) 
        slug: varchar(255)
        created_at: datetime
        updated_at: datetime
    }

    entity product {
        ** id: integer <<PK>> **
        - -
        category_id: <<FK>>
        name: varchar(191)
        slug: varchar(255)
        short_description: varchar(191)
        product_img: varchar(191)
        created_at: datetime
        updated_at: datetime
    }

    entity product_attr {
        ** id: integer <<PK>> **
        - -
        product_id: integer <<FK>>
        value: varchar(191)
        price: decimal
        quantity_in_stock: integer
        created_at: datetime
        updated_at: datetime
    }

    entity product_image {
        ** id: integer <<PK>> **
        - -
        product_attr_id: integer <<FK>>
        url: varchar(255)
        created_at: datetime
        updated_at: datetime
    }

    entity shipping_method {
        ** id: integer <<PK>> **
        - -
        name: varchar(191)
        price: decimal
        created_at: datetime
        updated_at: datetime
    }

    entity order_status {
        ** id: integer <<PK>> **
        - -
        status: varchar(11)
        created_at: datetime
        updated_at: datetime
    }

    entity order {
        ** id: integer <<PK>> **
        - -
        user_id: integer <<FK>>
        shipping_method_id: integer <<FK>>
        order_status_id: integer <<FK>>
        created_at: datetime
        updated_at: datetime
    }

    entity order_details {
        ** id: integer <<PK>> **
        - -
        order_id: integer <<FK>>
        product_attr_id: integer <<FK>>
        quantity: integer
        price: decimal
        created_at: datetime
        updated_at: datetime
    }

    product }|..|| category
    product_attr }|..|| product
    product_image }|..|| product
    order }o..|| user
    order ||..|| order_details
    order ||..|| order_status
    order ||..|| shipping_method
    product_attr }|..|| order_details


@endstart

PlantUML version 1.2022.7(Tue Aug 23 00:01:30 ICT 2022)
(GPL source distribution)
Java Runtime: Java(TM) SE Runtime Environment
JVM: Java HotSpot(TM) 64-Bit Server VM
Default Encoding: Cp1252
Language: en
Country: US
--></g></svg>