<?xml version="1.0" encoding="UTF-8" standalone="no"?><svg xmlns="http://www.w3.org/2000/svg" xmlns:xlink="http://www.w3.org/1999/xlink" contentStyleType="text/css" height="843px" preserveAspectRatio="none" style="width:1045px;height:843px;background:#FFFFFF;" version="1.1" viewBox="0 0 1045 843" width="1045px" zoomAndPan="magnify"><defs/><g><!--MD5=[e59cf999063292dce8d6ea34dd10a338]
class user--><g id="elem_user"><rect codeLine="1" fill="#F1F1F1" height="206.4844" id="user" rx="2.5" ry="2.5" style="stroke:#181818;stroke-width:0.5;" width="190" x="7" y="434"/><ellipse cx="83.75" cy="450" fill="#ADD1B2" rx="11" ry="11" style="stroke:#181818;stroke-width:1.0;"/><path d="M82.6094,450.7969 L82.6094,453.2969 L86.9375,453.2969 L86.9375,452.375 Q86.9375,451.7656 87.1719,451.5 Q87.4219,451.2344 87.7969,451.2344 Q88.1719,451.2344 88.4063,451.5 Q88.6406,451.7656 88.6406,452.375 L88.6406,455 L80.6406,455 Q80.0156,455 79.75,454.7656 Q79.5,454.5313 79.5,454.1406 Q79.5,453.7656 79.7656,453.5313 Q80.0313,453.2969 80.6406,453.2969 L80.9063,453.2969 L80.9063,446.6406 L80.6406,446.6406 Q80.0156,446.6406 79.75,446.4063 Q79.5,446.1719 79.5,445.7813 Q79.5,445.4063 79.75,445.1719 Q80.0156,444.9375 80.6406,444.9375 L88.2656,444.9375 L88.2656,447.5313 Q88.2656,448.1406 88.0313,448.4063 Q87.8125,448.6563 87.4219,448.6563 Q87.0469,448.6563 86.8125,448.4063 Q86.5781,448.1406 86.5781,447.5313 L86.5781,446.6406 L82.6094,446.6406 L82.6094,449.0938 L84.0938,449.0938 Q84.0938,448.4375 84.2188,448.25 Q84.4844,447.8438 84.9531,447.8438 Q85.3281,447.8438 85.5625,448.1094 Q85.7969,448.3594 85.7969,448.9688 L85.7969,450.9375 Q85.7969,451.4844 85.6719,451.6719 Q85.4063,452.0625 84.9531,452.0625 Q84.4844,452.0625 84.2188,451.6563 Q84.0938,451.4688 84.0938,450.7969 L82.6094,450.7969 Z " fill="#000000"/><text fill="#000000" font-family="sans-serif" font-size="14" lengthAdjust="spacing" textLength="28" x="104.25" y="455.7285">user</text><line style="stroke:#181818;stroke-width:0.5;" x1="8" x2="196" y1="466" y2="466"/><text fill="#000000" font-family="sans-serif" font-size="14" font-weight="bold" lengthAdjust="spacing" textLength="111" x="17" y="484.5332">id: integer «PK»</text><line style="stroke:#181818;stroke-width:1.0;" x1="8" x2="196" y1="491.6094" y2="491.6094"/><text fill="#000000" font-family="sans-serif" font-size="14" lengthAdjust="spacing" textLength="125" x="13" y="510.1426">name: varchar(191)</text><text fill="#000000" font-family="sans-serif" font-size="14" lengthAdjust="spacing" textLength="123" x="13" y="527.752">email: varchar(191)</text><text fill="#000000" font-family="sans-serif" font-size="14" lengthAdjust="spacing" textLength="150" x="13" y="545.3613">password: varchar(191)</text><text fill="#000000" font-family="sans-serif" font-size="14" lengthAdjust="spacing" textLength="178" x="13" y="562.9707">phone_number: varchar(20)</text><text fill="#000000" font-family="sans-serif" font-size="14" lengthAdjust="spacing" textLength="141" x="13" y="580.5801">address: varchar(191)</text><text fill="#000000" font-family="sans-serif" font-size="14" lengthAdjust="spacing" textLength="115" x="13" y="598.1895">is_admin: boolean</text><text fill="#000000" font-family="sans-serif" font-size="14" lengthAdjust="spacing" textLength="130" x="13" y="615.7988">created_at: datetime</text><text fill="#000000" font-family="sans-serif" font-size="14" lengthAdjust="spacing" textLength="134" x="13" y="633.4082">updated_at: datetime</text></g><!--MD5=[aa6efeff38892e418e1589090dab265e]
class category--><g id="elem_category"><rect codeLine="14" fill="#F1F1F1" height="136.0469" id="category" rx="2.5" ry="2.5" style="stroke:#181818;stroke-width:0.5;" width="146" x="860" y="700"/><ellipse cx="901.55" cy="716" fill="#ADD1B2" rx="11" ry="11" style="stroke:#181818;stroke-width:1.0;"/><path d="M900.4094,716.7969 L900.4094,719.2969 L904.7375,719.2969 L904.7375,718.375 Q904.7375,717.7656 904.9719,717.5 Q905.2219,717.2344 905.5969,717.2344 Q905.9719,717.2344 906.2063,717.5 Q906.4406,717.7656 906.4406,718.375 L906.4406,721 L898.4406,721 Q897.8156,721 897.55,720.7656 Q897.3,720.5313 897.3,720.1406 Q897.3,719.7656 897.5656,719.5313 Q897.8313,719.2969 898.4406,719.2969 L898.7063,719.2969 L898.7063,712.6406 L898.4406,712.6406 Q897.8156,712.6406 897.55,712.4063 Q897.3,712.1719 897.3,711.7813 Q897.3,711.4063 897.55,711.1719 Q897.8156,710.9375 898.4406,710.9375 L906.0656,710.9375 L906.0656,713.5313 Q906.0656,714.1406 905.8313,714.4063 Q905.6125,714.6563 905.2219,714.6563 Q904.8469,714.6563 904.6125,714.4063 Q904.3781,714.1406 904.3781,713.5313 L904.3781,712.6406 L900.4094,712.6406 L900.4094,715.0938 L901.8938,715.0938 Q901.8938,714.4375 902.0188,714.25 Q902.2844,713.8438 902.7531,713.8438 Q903.1281,713.8438 903.3625,714.1094 Q903.5969,714.3594 903.5969,714.9688 L903.5969,716.9375 Q903.5969,717.4844 903.4719,717.6719 Q903.2063,718.0625 902.7531,718.0625 Q902.2844,718.0625 902.0188,717.6563 Q901.8938,717.4688 901.8938,716.7969 L900.4094,716.7969 Z " fill="#000000"/><text fill="#000000" font-family="sans-serif" font-size="14" lengthAdjust="spacing" textLength="55" x="921.45" y="721.7285">category</text><line style="stroke:#181818;stroke-width:0.5;" x1="861" x2="1005" y1="732" y2="732"/><text fill="#000000" font-family="sans-serif" font-size="14" font-weight="bold" lengthAdjust="spacing" textLength="111" x="870" y="750.5332">id: integer «PK»</text><line style="stroke:#181818;stroke-width:1.0;" x1="861" x2="1005" y1="757.6094" y2="757.6094"/><text fill="#000000" font-family="sans-serif" font-size="14" lengthAdjust="spacing" textLength="125" x="866" y="776.1426">name: varchar(191)</text><text fill="#000000" font-family="sans-serif" font-size="14" lengthAdjust="spacing" textLength="116" x="866" y="793.752">slug: varchar(191)</text><text fill="#000000" font-family="sans-serif" font-size="14" lengthAdjust="spacing" textLength="130" x="866" y="811.3613">created_at: datetime</text><text fill="#000000" font-family="sans-serif" font-size="14" lengthAdjust="spacing" textLength="134" x="866" y="828.9707">updated_at: datetime</text></g><!--MD5=[e7a7e1f076ef42143f937b81d7de9aa7]
class product--><g id="elem_product"><rect codeLine="23" fill="#F1F1F1" height="188.875" id="product" rx="2.5" ry="2.5" style="stroke:#181818;stroke-width:0.5;" width="211" x="827.5" y="442.5"/><ellipse cx="904.75" cy="458.5" fill="#ADD1B2" rx="11" ry="11" style="stroke:#181818;stroke-width:1.0;"/><path d="M903.6094,459.2969 L903.6094,461.7969 L907.9375,461.7969 L907.9375,460.875 Q907.9375,460.2656 908.1719,460 Q908.4219,459.7344 908.7969,459.7344 Q909.1719,459.7344 909.4063,460 Q909.6406,460.2656 909.6406,460.875 L909.6406,463.5 L901.6406,463.5 Q901.0156,463.5 900.75,463.2656 Q900.5,463.0313 900.5,462.6406 Q900.5,462.2656 900.7656,462.0313 Q901.0313,461.7969 901.6406,461.7969 L901.9063,461.7969 L901.9063,455.1406 L901.6406,455.1406 Q901.0156,455.1406 900.75,454.9063 Q900.5,454.6719 900.5,454.2813 Q900.5,453.9063 900.75,453.6719 Q901.0156,453.4375 901.6406,453.4375 L909.2656,453.4375 L909.2656,456.0313 Q909.2656,456.6406 909.0313,456.9063 Q908.8125,457.1563 908.4219,457.1563 Q908.0469,457.1563 907.8125,456.9063 Q907.5781,456.6406 907.5781,456.0313 L907.5781,455.1406 L903.6094,455.1406 L903.6094,457.5938 L905.0938,457.5938 Q905.0938,456.9375 905.2188,456.75 Q905.4844,456.3438 905.9531,456.3438 Q906.3281,456.3438 906.5625,456.6094 Q906.7969,456.8594 906.7969,457.4688 L906.7969,459.4375 Q906.7969,459.9844 906.6719,460.1719 Q906.4063,460.5625 905.9531,460.5625 Q905.4844,460.5625 905.2188,460.1563 Q905.0938,459.9688 905.0938,459.2969 L903.6094,459.2969 Z " fill="#000000"/><text fill="#000000" font-family="sans-serif" font-size="14" lengthAdjust="spacing" textLength="48" x="925.25" y="464.2285">product</text><line style="stroke:#181818;stroke-width:0.5;" x1="828.5" x2="1037.5" y1="474.5" y2="474.5"/><text fill="#000000" font-family="sans-serif" font-size="14" font-weight="bold" lengthAdjust="spacing" textLength="111" x="837.5" y="493.0332">id: integer «PK»</text><line style="stroke:#181818;stroke-width:1.0;" x1="828.5" x2="1037.5" y1="500.1094" y2="500.1094"/><text fill="#000000" font-family="sans-serif" font-size="14" lengthAdjust="spacing" textLength="116" x="833.5" y="518.6426">category_id: «FK»</text><text fill="#000000" font-family="sans-serif" font-size="14" lengthAdjust="spacing" textLength="125" x="833.5" y="536.252">name: varchar(191)</text><text fill="#000000" font-family="sans-serif" font-size="14" lengthAdjust="spacing" textLength="116" x="833.5" y="553.8613">slug: varchar(191)</text><text fill="#000000" font-family="sans-serif" font-size="14" lengthAdjust="spacing" textLength="199" x="833.5" y="571.4707">short_description: varchar(191)</text><text fill="#000000" font-family="sans-serif" font-size="14" lengthAdjust="spacing" textLength="168" x="833.5" y="589.0801">product_img: varchar(191)</text><text fill="#000000" font-family="sans-serif" font-size="14" lengthAdjust="spacing" textLength="130" x="833.5" y="606.6895">created_at: datetime</text><text fill="#000000" font-family="sans-serif" font-size="14" lengthAdjust="spacing" textLength="134" x="833.5" y="624.2988">updated_at: datetime</text></g><!--MD5=[44be5dd73f854f3597bb7eede8e38bb3]
class product_attr--><g id="elem_product_attr"><rect codeLine="35" fill="#F1F1F1" height="171.2656" id="product_attr" rx="2.5" ry="2.5" style="stroke:#181818;stroke-width:0.5;" width="174" x="658" y="203"/><ellipse cx="702.25" cy="219" fill="#ADD1B2" rx="11" ry="11" style="stroke:#181818;stroke-width:1.0;"/><path d="M701.1094,219.7969 L701.1094,222.2969 L705.4375,222.2969 L705.4375,221.375 Q705.4375,220.7656 705.6719,220.5 Q705.9219,220.2344 706.2969,220.2344 Q706.6719,220.2344 706.9063,220.5 Q707.1406,220.7656 707.1406,221.375 L707.1406,224 L699.1406,224 Q698.5156,224 698.25,223.7656 Q698,223.5313 698,223.1406 Q698,222.7656 698.2656,222.5313 Q698.5313,222.2969 699.1406,222.2969 L699.4063,222.2969 L699.4063,215.6406 L699.1406,215.6406 Q698.5156,215.6406 698.25,215.4063 Q698,215.1719 698,214.7813 Q698,214.4063 698.25,214.1719 Q698.5156,213.9375 699.1406,213.9375 L706.7656,213.9375 L706.7656,216.5313 Q706.7656,217.1406 706.5313,217.4063 Q706.3125,217.6563 705.9219,217.6563 Q705.5469,217.6563 705.3125,217.4063 Q705.0781,217.1406 705.0781,216.5313 L705.0781,215.6406 L701.1094,215.6406 L701.1094,218.0938 L702.5938,218.0938 Q702.5938,217.4375 702.7188,217.25 Q702.9844,216.8438 703.4531,216.8438 Q703.8281,216.8438 704.0625,217.1094 Q704.2969,217.3594 704.2969,217.9688 L704.2969,219.9375 Q704.2969,220.4844 704.1719,220.6719 Q703.9063,221.0625 703.4531,221.0625 Q702.9844,221.0625 702.7188,220.6563 Q702.5938,220.4688 702.5938,219.7969 L701.1094,219.7969 Z " fill="#000000"/><text fill="#000000" font-family="sans-serif" font-size="14" lengthAdjust="spacing" textLength="77" x="722.75" y="224.7285">product_attr</text><line style="stroke:#181818;stroke-width:0.5;" x1="659" x2="831" y1="235" y2="235"/><text fill="#000000" font-family="sans-serif" font-size="14" font-weight="bold" lengthAdjust="spacing" textLength="111" x="668" y="253.5332">id: integer «PK»</text><line style="stroke:#181818;stroke-width:1.0;" x1="659" x2="831" y1="260.6094" y2="260.6094"/><text fill="#000000" font-family="sans-serif" font-size="14" lengthAdjust="spacing" textLength="157" x="664" y="279.1426">product_id: integer «FK»</text><text fill="#000000" font-family="sans-serif" font-size="14" lengthAdjust="spacing" textLength="124" x="664" y="296.752">value: varchar(191)</text><text fill="#000000" font-family="sans-serif" font-size="14" lengthAdjust="spacing" textLength="87" x="664" y="314.3613">price: decimal</text><text fill="#000000" font-family="sans-serif" font-size="14" lengthAdjust="spacing" textLength="162" x="664" y="331.9707">quantity_in_stock: integer</text><text fill="#000000" font-family="sans-serif" font-size="14" lengthAdjust="spacing" textLength="130" x="664" y="349.5801">created_at: datetime</text><text fill="#000000" font-family="sans-serif" font-size="14" lengthAdjust="spacing" textLength="134" x="664" y="367.1895">updated_at: datetime</text></g><!--MD5=[5121d032c2d8b5f50cb6b765731b9be3]
class product_image--><g id="elem_product_image"><rect codeLine="46" fill="#F1F1F1" height="136.0469" id="product_image" rx="2.5" ry="2.5" style="stroke:#181818;stroke-width:0.5;" width="198" x="646" y="7"/><ellipse cx="693.75" cy="23" fill="#ADD1B2" rx="11" ry="11" style="stroke:#181818;stroke-width:1.0;"/><path d="M692.6094,23.7969 L692.6094,26.2969 L696.9375,26.2969 L696.9375,25.375 Q696.9375,24.7656 697.1719,24.5 Q697.4219,24.2344 697.7969,24.2344 Q698.1719,24.2344 698.4063,24.5 Q698.6406,24.7656 698.6406,25.375 L698.6406,28 L690.6406,28 Q690.0156,28 689.75,27.7656 Q689.5,27.5313 689.5,27.1406 Q689.5,26.7656 689.7656,26.5313 Q690.0313,26.2969 690.6406,26.2969 L690.9063,26.2969 L690.9063,19.6406 L690.6406,19.6406 Q690.0156,19.6406 689.75,19.4063 Q689.5,19.1719 689.5,18.7813 Q689.5,18.4063 689.75,18.1719 Q690.0156,17.9375 690.6406,17.9375 L698.2656,17.9375 L698.2656,20.5313 Q698.2656,21.1406 698.0313,21.4063 Q697.8125,21.6563 697.4219,21.6563 Q697.0469,21.6563 696.8125,21.4063 Q696.5781,21.1406 696.5781,20.5313 L696.5781,19.6406 L692.6094,19.6406 L692.6094,22.0938 L694.0938,22.0938 Q694.0938,21.4375 694.2188,21.25 Q694.4844,20.8438 694.9531,20.8438 Q695.3281,20.8438 695.5625,21.1094 Q695.7969,21.3594 695.7969,21.9688 L695.7969,23.9375 Q695.7969,24.4844 695.6719,24.6719 Q695.4063,25.0625 694.9531,25.0625 Q694.4844,25.0625 694.2188,24.6563 Q694.0938,24.4688 694.0938,23.7969 L692.6094,23.7969 Z " fill="#000000"/><text fill="#000000" font-family="sans-serif" font-size="14" lengthAdjust="spacing" textLength="94" x="714.25" y="28.7285">product_image</text><line style="stroke:#181818;stroke-width:0.5;" x1="647" x2="843" y1="39" y2="39"/><text fill="#000000" font-family="sans-serif" font-size="14" font-weight="bold" lengthAdjust="spacing" textLength="111" x="656" y="57.5332">id: integer «PK»</text><line style="stroke:#181818;stroke-width:1.0;" x1="647" x2="843" y1="64.6094" y2="64.6094"/><text fill="#000000" font-family="sans-serif" font-size="14" lengthAdjust="spacing" textLength="186" x="652" y="83.1426">product_attr_id: integer «FK»</text><text fill="#000000" font-family="sans-serif" font-size="14" lengthAdjust="spacing" textLength="106" x="652" y="100.752">url: varchar(191)</text><text fill="#000000" font-family="sans-serif" font-size="14" lengthAdjust="spacing" textLength="130" x="652" y="118.3613">created_at: datetime</text><text fill="#000000" font-family="sans-serif" font-size="14" lengthAdjust="spacing" textLength="134" x="652" y="135.9707">updated_at: datetime</text></g><!--MD5=[7f301e5a6f324784b35ebbf4505361c2]
class shipping_method--><g id="elem_shipping_method"><rect codeLine="55" fill="#F1F1F1" height="136.0469" id="shipping_method" rx="2.5" ry="2.5" style="stroke:#181818;stroke-width:0.5;" width="146" x="232" y="469"/><ellipse cx="249.7" cy="485" fill="#ADD1B2" rx="11" ry="11" style="stroke:#181818;stroke-width:1.0;"/><path d="M248.5594,485.7969 L248.5594,488.2969 L252.8875,488.2969 L252.8875,487.375 Q252.8875,486.7656 253.1219,486.5 Q253.3719,486.2344 253.7469,486.2344 Q254.1219,486.2344 254.3563,486.5 Q254.5906,486.7656 254.5906,487.375 L254.5906,490 L246.5906,490 Q245.9656,490 245.7,489.7656 Q245.45,489.5313 245.45,489.1406 Q245.45,488.7656 245.7156,488.5313 Q245.9813,488.2969 246.5906,488.2969 L246.8563,488.2969 L246.8563,481.6406 L246.5906,481.6406 Q245.9656,481.6406 245.7,481.4063 Q245.45,481.1719 245.45,480.7813 Q245.45,480.4063 245.7,480.1719 Q245.9656,479.9375 246.5906,479.9375 L254.2156,479.9375 L254.2156,482.5313 Q254.2156,483.1406 253.9813,483.4063 Q253.7625,483.6563 253.3719,483.6563 Q252.9969,483.6563 252.7625,483.4063 Q252.5281,483.1406 252.5281,482.5313 L252.5281,481.6406 L248.5594,481.6406 L248.5594,484.0938 L250.0438,484.0938 Q250.0438,483.4375 250.1688,483.25 Q250.4344,482.8438 250.9031,482.8438 Q251.2781,482.8438 251.5125,483.1094 Q251.7469,483.3594 251.7469,483.9688 L251.7469,485.9375 Q251.7469,486.4844 251.6219,486.6719 Q251.3563,487.0625 250.9031,487.0625 Q250.4344,487.0625 250.1688,486.6563 Q250.0438,486.4688 250.0438,485.7969 L248.5594,485.7969 Z " fill="#000000"/><text fill="#000000" font-family="sans-serif" font-size="14" lengthAdjust="spacing" textLength="108" x="264.3" y="490.7285">shipping_method</text><line style="stroke:#181818;stroke-width:0.5;" x1="233" x2="377" y1="501" y2="501"/><text fill="#000000" font-family="sans-serif" font-size="14" font-weight="bold" lengthAdjust="spacing" textLength="111" x="242" y="519.5332">id: integer «PK»</text><line style="stroke:#181818;stroke-width:1.0;" x1="233" x2="377" y1="526.6094" y2="526.6094"/><text fill="#000000" font-family="sans-serif" font-size="14" lengthAdjust="spacing" textLength="125" x="238" y="545.1426">name: varchar(191)</text><text fill="#000000" font-family="sans-serif" font-size="14" lengthAdjust="spacing" textLength="87" x="238" y="562.752">price: decimal</text><text fill="#000000" font-family="sans-serif" font-size="14" lengthAdjust="spacing" textLength="130" x="238" y="580.3613">created_at: datetime</text><text fill="#000000" font-family="sans-serif" font-size="14" lengthAdjust="spacing" textLength="134" x="238" y="597.9707">updated_at: datetime</text></g><!--MD5=[1e66e420fa66e3023a7e864e49eec7a4]
class order_status--><g id="elem_order_status"><rect codeLine="64" fill="#F1F1F1" height="118.4375" id="order_status" rx="2.5" ry="2.5" style="stroke:#181818;stroke-width:0.5;" width="146" x="413" y="478"/><ellipse cx="443.3" cy="494" fill="#ADD1B2" rx="11" ry="11" style="stroke:#181818;stroke-width:1.0;"/><path d="M442.1594,494.7969 L442.1594,497.2969 L446.4875,497.2969 L446.4875,496.375 Q446.4875,495.7656 446.7219,495.5 Q446.9719,495.2344 447.3469,495.2344 Q447.7219,495.2344 447.9563,495.5 Q448.1906,495.7656 448.1906,496.375 L448.1906,499 L440.1906,499 Q439.5656,499 439.3,498.7656 Q439.05,498.5313 439.05,498.1406 Q439.05,497.7656 439.3156,497.5313 Q439.5813,497.2969 440.1906,497.2969 L440.4563,497.2969 L440.4563,490.6406 L440.1906,490.6406 Q439.5656,490.6406 439.3,490.4063 Q439.05,490.1719 439.05,489.7813 Q439.05,489.4063 439.3,489.1719 Q439.5656,488.9375 440.1906,488.9375 L447.8156,488.9375 L447.8156,491.5313 Q447.8156,492.1406 447.5813,492.4063 Q447.3625,492.6563 446.9719,492.6563 Q446.5969,492.6563 446.3625,492.4063 Q446.1281,492.1406 446.1281,491.5313 L446.1281,490.6406 L442.1594,490.6406 L442.1594,493.0938 L443.6438,493.0938 Q443.6438,492.4375 443.7688,492.25 Q444.0344,491.8438 444.5031,491.8438 Q444.8781,491.8438 445.1125,492.1094 Q445.3469,492.3594 445.3469,492.9688 L445.3469,494.9375 Q445.3469,495.4844 445.2219,495.6719 Q444.9563,496.0625 444.5031,496.0625 Q444.0344,496.0625 443.7688,495.6563 Q443.6438,495.4688 443.6438,494.7969 L442.1594,494.7969 Z " fill="#000000"/><text fill="#000000" font-family="sans-serif" font-size="14" lengthAdjust="spacing" textLength="80" x="460.7" y="499.7285">order_status</text><line style="stroke:#181818;stroke-width:0.5;" x1="414" x2="558" y1="510" y2="510"/><text fill="#000000" font-family="sans-serif" font-size="14" font-weight="bold" lengthAdjust="spacing" textLength="111" x="423" y="528.5332">id: integer «PK»</text><line style="stroke:#181818;stroke-width:1.0;" x1="414" x2="558" y1="535.6094" y2="535.6094"/><text fill="#000000" font-family="sans-serif" font-size="14" lengthAdjust="spacing" textLength="120" x="419" y="554.1426">status: varchar(11)</text><text fill="#000000" font-family="sans-serif" font-size="14" lengthAdjust="spacing" textLength="130" x="419" y="571.752">created_at: datetime</text><text fill="#000000" font-family="sans-serif" font-size="14" lengthAdjust="spacing" textLength="134" x="419" y="589.3613">updated_at: datetime</text></g><!--MD5=[a5d022e75c0065b9d5401ddae886f23d]
class order--><g id="elem_order"><rect codeLine="72" fill="#F1F1F1" height="153.6563" id="order" rx="2.5" ry="2.5" style="stroke:#181818;stroke-width:0.5;" width="229" x="318.5" y="211.5"/><ellipse cx="411.75" cy="227.5" fill="#ADD1B2" rx="11" ry="11" style="stroke:#181818;stroke-width:1.0;"/><path d="M410.6094,228.2969 L410.6094,230.7969 L414.9375,230.7969 L414.9375,229.875 Q414.9375,229.2656 415.1719,229 Q415.4219,228.7344 415.7969,228.7344 Q416.1719,228.7344 416.4063,229 Q416.6406,229.2656 416.6406,229.875 L416.6406,232.5 L408.6406,232.5 Q408.0156,232.5 407.75,232.2656 Q407.5,232.0313 407.5,231.6406 Q407.5,231.2656 407.7656,231.0313 Q408.0313,230.7969 408.6406,230.7969 L408.9063,230.7969 L408.9063,224.1406 L408.6406,224.1406 Q408.0156,224.1406 407.75,223.9063 Q407.5,223.6719 407.5,223.2813 Q407.5,222.9063 407.75,222.6719 Q408.0156,222.4375 408.6406,222.4375 L416.2656,222.4375 L416.2656,225.0313 Q416.2656,225.6406 416.0313,225.9063 Q415.8125,226.1563 415.4219,226.1563 Q415.0469,226.1563 414.8125,225.9063 Q414.5781,225.6406 414.5781,225.0313 L414.5781,224.1406 L410.6094,224.1406 L410.6094,226.5938 L412.0938,226.5938 Q412.0938,225.9375 412.2188,225.75 Q412.4844,225.3438 412.9531,225.3438 Q413.3281,225.3438 413.5625,225.6094 Q413.7969,225.8594 413.7969,226.4688 L413.7969,228.4375 Q413.7969,228.9844 413.6719,229.1719 Q413.4063,229.5625 412.9531,229.5625 Q412.4844,229.5625 412.2188,229.1563 Q412.0938,228.9688 412.0938,228.2969 L410.6094,228.2969 Z " fill="#000000"/><text fill="#000000" font-family="sans-serif" font-size="14" lengthAdjust="spacing" textLength="34" x="432.25" y="233.2285">order</text><line style="stroke:#181818;stroke-width:0.5;" x1="319.5" x2="546.5" y1="243.5" y2="243.5"/><text fill="#000000" font-family="sans-serif" font-size="14" font-weight="bold" lengthAdjust="spacing" textLength="111" x="328.5" y="262.0332">id: integer «PK»</text><line style="stroke:#181818;stroke-width:1.0;" x1="319.5" x2="546.5" y1="269.1094" y2="269.1094"/><text fill="#000000" font-family="sans-serif" font-size="14" lengthAdjust="spacing" textLength="137" x="324.5" y="287.6426">user_id: integer «FK»</text><text fill="#000000" font-family="sans-serif" font-size="14" lengthAdjust="spacing" textLength="217" x="324.5" y="305.252">shipping_method_id: integer «FK»</text><text fill="#000000" font-family="sans-serif" font-size="14" lengthAdjust="spacing" textLength="189" x="324.5" y="322.8613">order_status_id: integer «FK»</text><text fill="#000000" font-family="sans-serif" font-size="14" lengthAdjust="spacing" textLength="130" x="324.5" y="340.4707">created_at: datetime</text><text fill="#000000" font-family="sans-serif" font-size="14" lengthAdjust="spacing" textLength="134" x="324.5" y="358.0801">updated_at: datetime</text></g><!--MD5=[202aabeb0f0e7d57ddb7f1d70aeeaa8a]
class order_details--><g id="elem_order_details"><rect codeLine="82" fill="#F1F1F1" height="171.2656" id="order_details" rx="2.5" ry="2.5" style="stroke:#181818;stroke-width:0.5;" width="198" x="594" y="451.5"/><ellipse cx="647.25" cy="467.5" fill="#ADD1B2" rx="11" ry="11" style="stroke:#181818;stroke-width:1.0;"/><path d="M646.1094,468.2969 L646.1094,470.7969 L650.4375,470.7969 L650.4375,469.875 Q650.4375,469.2656 650.6719,469 Q650.9219,468.7344 651.2969,468.7344 Q651.6719,468.7344 651.9063,469 Q652.1406,469.2656 652.1406,469.875 L652.1406,472.5 L644.1406,472.5 Q643.5156,472.5 643.25,472.2656 Q643,472.0313 643,471.6406 Q643,471.2656 643.2656,471.0313 Q643.5313,470.7969 644.1406,470.7969 L644.4063,470.7969 L644.4063,464.1406 L644.1406,464.1406 Q643.5156,464.1406 643.25,463.9063 Q643,463.6719 643,463.2813 Q643,462.9063 643.25,462.6719 Q643.5156,462.4375 644.1406,462.4375 L651.7656,462.4375 L651.7656,465.0313 Q651.7656,465.6406 651.5313,465.9063 Q651.3125,466.1563 650.9219,466.1563 Q650.5469,466.1563 650.3125,465.9063 Q650.0781,465.6406 650.0781,465.0313 L650.0781,464.1406 L646.1094,464.1406 L646.1094,466.5938 L647.5938,466.5938 Q647.5938,465.9375 647.7188,465.75 Q647.9844,465.3438 648.4531,465.3438 Q648.8281,465.3438 649.0625,465.6094 Q649.2969,465.8594 649.2969,466.4688 L649.2969,468.4375 Q649.2969,468.9844 649.1719,469.1719 Q648.9063,469.5625 648.4531,469.5625 Q647.9844,469.5625 647.7188,469.1563 Q647.5938,468.9688 647.5938,468.2969 L646.1094,468.2969 Z " fill="#000000"/><text fill="#000000" font-family="sans-serif" font-size="14" lengthAdjust="spacing" textLength="83" x="667.75" y="473.2285">order_details</text><line style="stroke:#181818;stroke-width:0.5;" x1="595" x2="791" y1="483.5" y2="483.5"/><text fill="#000000" font-family="sans-serif" font-size="14" font-weight="bold" lengthAdjust="spacing" textLength="111" x="604" y="502.0332">id: integer «PK»</text><line style="stroke:#181818;stroke-width:1.0;" x1="595" x2="791" y1="509.1094" y2="509.1094"/><text fill="#000000" font-family="sans-serif" font-size="14" lengthAdjust="spacing" textLength="143" x="600" y="527.6426">order_id: integer «FK»</text><text fill="#000000" font-family="sans-serif" font-size="14" lengthAdjust="spacing" textLength="186" x="600" y="545.252">product_attr_id: integer «FK»</text><text fill="#000000" font-family="sans-serif" font-size="14" lengthAdjust="spacing" textLength="102" x="600" y="562.8613">quantity: integer</text><text fill="#000000" font-family="sans-serif" font-size="14" lengthAdjust="spacing" textLength="87" x="600" y="580.4707">price: decimal</text><text fill="#000000" font-family="sans-serif" font-size="14" lengthAdjust="spacing" textLength="130" x="600" y="598.0801">created_at: datetime</text><text fill="#000000" font-family="sans-serif" font-size="14" lengthAdjust="spacing" textLength="134" x="600" y="615.6895">updated_at: datetime</text></g><!--MD5=[bc6726ab9e359cb749f91bb62e51a7da]
link product to category--><g id="link_product_category"><path codeLine="93" d="M933,639.88 C933,657.38 933,675.27 933,691.91 " fill="none" id="product-category" style="stroke:#181818;stroke-width:1.0;stroke-dasharray:7.0,7.0;"/><line style="stroke:#181818;stroke-width:1.0;" x1="937" x2="929" y1="695.96" y2="695.96"/><line style="stroke:#181818;stroke-width:1.0;" x1="937" x2="929" y1="692.96" y2="692.96"/><line style="stroke:#181818;stroke-width:1.0;" x1="933" x2="933" y1="691.96" y2="699.96"/><line style="stroke:#181818;stroke-width:1.0;" x1="933" x2="927" y1="639.8" y2="631.8"/><line style="stroke:#181818;stroke-width:1.0;" x1="933" x2="939" y1="639.8" y2="631.8"/><line style="stroke:#181818;stroke-width:1.0;" x1="933" x2="933" y1="639.8" y2="631.8"/><line style="stroke:#181818;stroke-width:1.0;" x1="929" x2="937" y1="641.8" y2="641.8"/></g><!--MD5=[5d28c9ca9f68fbd29033789be823643a]
link product_attr to product--><g id="link_product_attr_product"><path codeLine="94" d="M814.62,380.79 C828.22,398.61 842.55,417.4 856.36,435.51 " fill="none" id="product_attr-product" style="stroke:#181818;stroke-width:1.0;stroke-dasharray:7.0,7.0;"/><line style="stroke:#181818;stroke-width:1.0;" x1="862.184" x2="855.815" y1="436.545" y2="441.386"/><line style="stroke:#181818;stroke-width:1.0;" x1="860.3686" x2="853.9996" y1="434.1566" y2="438.9976"/><line style="stroke:#181818;stroke-width:1.0;" x1="856.579" x2="861.42" y1="435.781" y2="442.15"/><line style="stroke:#181818;stroke-width:1.0;" x1="814.5501" x2="804.9284" y1="380.6921" y2="377.9675"/><line style="stroke:#181818;stroke-width:1.0;" x1="814.5501" x2="814.4716" y1="380.6921" y2="370.6925"/><line style="stroke:#181818;stroke-width:1.0;" x1="814.5501" x2="809.7" y1="380.6921" y2="374.33"/><line style="stroke:#181818;stroke-width:1.0;" x1="812.5815" x2="818.9437" y1="384.7077" y2="379.8576"/></g><!--MD5=[886aa6273ae6af548c6d3f5ed7b8f98c]
link product_image to product_attr--><g id="link_product_image_product_attr"><path codeLine="95" d="M745,151.33 C745,165.45 745,180.36 745,194.93 " fill="none" id="product_image-product_attr" style="stroke:#181818;stroke-width:1.0;stroke-dasharray:7.0,7.0;"/><line style="stroke:#181818;stroke-width:1.0;" x1="749" x2="741" y1="198.98" y2="198.98"/><line style="stroke:#181818;stroke-width:1.0;" x1="749" x2="741" y1="195.98" y2="195.98"/><line style="stroke:#181818;stroke-width:1.0;" x1="745" x2="745" y1="194.98" y2="202.98"/><line style="stroke:#181818;stroke-width:1.0;" x1="745" x2="739" y1="151.21" y2="143.21"/><line style="stroke:#181818;stroke-width:1.0;" x1="745" x2="751" y1="151.21" y2="143.21"/><line style="stroke:#181818;stroke-width:1.0;" x1="745" x2="745" y1="151.21" y2="143.21"/><line style="stroke:#181818;stroke-width:1.0;" x1="741" x2="749" y1="153.21" y2="153.21"/></g><!--MD5=[0126c3034958e11a6d7dee9cd99996aa]
link order to user--><g id="link_order_user"><path codeLine="96" d="M311.53,364.83 C279.13,386.21 244.63,410.18 214,434 C210.5,436.72 206.97,439.53 203.43,442.4 " fill="none" id="order-user" style="stroke:#181818;stroke-width:1.0;stroke-dasharray:7.0,7.0;"/><line style="stroke:#181818;stroke-width:1.0;" x1="202.7001" x2="197.6195" y1="448.1795" y2="441.9999"/><line style="stroke:#181818;stroke-width:1.0;" x1="205.0174" x2="199.9368" y1="446.2742" y2="440.0946"/><line style="stroke:#181818;stroke-width:1.0;" x1="203.2496" x2="197.07" y1="442.5493" y2="447.63"/><line style="stroke:#181818;stroke-width:1.0;" x1="311.7274" x2="315.1115" y1="364.708" y2="355.298"/><line style="stroke:#181818;stroke-width:1.0;" x1="311.7274" x2="321.7085" y1="364.708" y2="365.322"/><line style="stroke:#181818;stroke-width:1.0;" x1="311.7274" x2="318.41" y1="364.708" y2="360.31"/><ellipse cx="306.7154" cy="368.0065" fill="none" rx="4" ry="4" style="stroke:#181818;stroke-width:1.0;"/></g><!--MD5=[d344720344a4f20c02ccc289a143f15c]
link order to order_details--><g id="link_order_order_details"><path codeLine="97" d="M518.9,370.94 C544.45,395.17 572.59,421.84 598.66,446.56 " fill="none" id="order-order_details" style="stroke:#181818;stroke-width:1.0;stroke-dasharray:7.0,7.0;"/><line style="stroke:#181818;stroke-width:1.0;" x1="603.6929" x2="598.1851" y1="445.8151" y2="451.6171"/><line style="stroke:#181818;stroke-width:1.0;" x1="601.5171" x2="596.0093" y1="443.7496" y2="449.5517"/><line style="stroke:#181818;stroke-width:1.0;" x1="598.038" x2="603.84" y1="445.9622" y2="451.47"/><line style="stroke:#181818;stroke-width:1.0;" x1="513.645" x2="519.1447" y1="371.4647" y2="365.655"/><line style="stroke:#181818;stroke-width:1.0;" x1="515.8237" x2="521.3234" y1="373.5271" y2="367.7173"/><line style="stroke:#181818;stroke-width:1.0;" x1="519.2998" x2="513.49" y1="371.3097" y2="365.81"/></g><!--MD5=[d19f2375a9d097dbb6083902311c26e1]
link order to order_status--><g id="link_order_order_status"><path codeLine="98" d="M450.97,373.07 C457.81,404.9 465.5,440.68 471.93,470.58 " fill="none" id="order-order_status" style="stroke:#181818;stroke-width:1.0;stroke-dasharray:7.0,7.0;"/><line style="stroke:#181818;stroke-width:1.0;" x1="476.5297" x2="468.7085" y1="472.9085" y2="474.5903"/><line style="stroke:#181818;stroke-width:1.0;" x1="475.899" x2="468.0778" y1="469.9755" y2="471.6573"/><line style="stroke:#181818;stroke-width:1.0;" x1="471.7782" x2="473.46" y1="469.8388" y2="477.66"/><line style="stroke:#181818;stroke-width:1.0;" x1="446.3403" x2="454.1615" y1="370.5615" y2="368.8797"/><line style="stroke:#181818;stroke-width:1.0;" x1="446.971" x2="454.7922" y1="373.4945" y2="371.8127"/><line style="stroke:#181818;stroke-width:1.0;" x1="451.0918" x2="449.41" y1="373.6312" y2="365.81"/></g><!--MD5=[d10a3fab9f9c4e78b5c8fa7eea69b12b]
link order to shipping_method--><g id="link_order_shipping_method"><path codeLine="99" d="M390.14,372.04 C374.95,401.29 357.97,433.98 343.2,462.43 " fill="none" id="order-shipping_method" style="stroke:#181818;stroke-width:1.0;stroke-dasharray:7.0,7.0;"/><line style="stroke:#181818;stroke-width:1.0;" x1="345.2837" x2="338.1846" y1="467.1046" y2="463.4163"/><line style="stroke:#181818;stroke-width:1.0;" x1="346.6668" x2="339.5677" y1="464.4424" y2="460.7542"/><line style="stroke:#181818;stroke-width:1.0;" x1="343.5783" x2="339.89" y1="461.7109" y2="468.81"/><line style="stroke:#181818;stroke-width:1.0;" x1="387.9847" x2="395.0803" y1="367.5103" y2="371.2053"/><line style="stroke:#181818;stroke-width:1.0;" x1="386.5991" x2="393.6947" y1="370.1712" y2="373.8661"/><line style="stroke:#181818;stroke-width:1.0;" x1="389.6851" x2="393.38" y1="372.9056" y2="365.81"/></g><!--MD5=[62070bbd123cee8b4e3ef0af0ab3dada]
link product_attr to order_details--><g id="link_product_attr_order_details"><path codeLine="100" d="M725.43,382.29 C721.2,402.32 716.73,423.5 712.51,443.52 " fill="none" id="product_attr-order_details" style="stroke:#181818;stroke-width:1.0;stroke-dasharray:7.0,7.0;"/><line style="stroke:#181818;stroke-width:1.0;" x1="715.5816" x2="707.7551" y1="448.3451" y2="446.6884"/><line style="stroke:#181818;stroke-width:1.0;" x1="716.2029" x2="708.3763" y1="445.4101" y2="443.7534"/><line style="stroke:#181818;stroke-width:1.0;" x1="712.4967" x2="710.84" y1="443.6034" y2="451.43"/><line style="stroke:#181818;stroke-width:1.0;" x1="725.4433" x2="721.2301" y1="382.1566" y2="373.0875"/><line style="stroke:#181818;stroke-width:1.0;" x1="725.4433" x2="732.9699" y1="382.1566" y2="375.5725"/><line style="stroke:#181818;stroke-width:1.0;" x1="725.4433" x2="727.1" y1="382.1566" y2="374.33"/><line style="stroke:#181818;stroke-width:1.0;" x1="721.1158" x2="728.9424" y1="383.2849" y2="384.9416"/></g><!--MD5=[614ea23e150cf6bd36c46bd1a2b38ac1]
@startuml entity_relationship
    entity user {
        ** id: integer <<PK>> **
        - -
        name: varchar(191)
        email: varchar(191)
        password: varchar(191)
        phone_number: varchar(20)
        address: varchar(191)
        is_admin: boolean
        created_at: datetime
        updated_at: datetime
    }

    entity category {
        ** id: integer <<PK>> **
        - -
        name: varchar(191) 
        slug: varchar(191)
        created_at: datetime
        updated_at: datetime
    }

    entity product {
        ** id: integer <<PK>> **
        - -
        category_id: <<FK>>
        name: varchar(191)
        slug: varchar(191)
        short_description: varchar(191)
        product_img: varchar(191)
        created_at: datetime
        updated_at: datetime
    }

    entity product_attr {
        ** id: integer <<PK>> **
        - -
        product_id: integer <<FK>>
        value: varchar(191)
        price: decimal
        quantity_in_stock: integer
        created_at: datetime
        updated_at: datetime
    }

    entity product_image {
        ** id: integer <<PK>> **
        - -
        product_attr_id: integer <<FK>>
        url: varchar(191)
        created_at: datetime
        updated_at: datetime
    }

    entity shipping_method {
        ** id: integer <<PK>> **
        - -
        name: varchar(191)
        price: decimal
        created_at: datetime
        updated_at: datetime
    }

    entity order_status {
        ** id: integer <<PK>> **
        - -
        status: varchar(11)
        created_at: datetime
        updated_at: datetime
    }

    entity order {
        ** id: integer <<PK>> **
        - -
        user_id: integer <<FK>>
        shipping_method_id: integer <<FK>>
        order_status_id: integer <<FK>>
        created_at: datetime
        updated_at: datetime
    }

    entity order_details {
        ** id: integer <<PK>> **
        - -
        order_id: integer <<FK>>
        product_attr_id: integer <<FK>>
        quantity: integer
        price: decimal
        created_at: datetime
        updated_at: datetime
    }

    product }|..|| category
    product_attr }|..|| product
    product_image }|..|| product_attr
    order }o..|| user
    order ||..|| order_details
    order ||..|| order_status
    order ||..|| shipping_method
    product_attr }|..|| order_details


@endstart

PlantUML version 1.2022.7(Tue Aug 23 00:01:30 ICT 2022)
(GPL source distribution)
Java Runtime: Java(TM) SE Runtime Environment
JVM: Java HotSpot(TM) 64-Bit Server VM
Default Encoding: Cp1252
Language: en
Country: US
--></g></svg>